<svg id="Layer_2" data-name="Layer 2" xmlns="http://www.w3.org/2000/svg" viewBox="0 0 611.42 1200"><path d="M563.11,591.15c-1-8.85-27.71-22.76-27.71-22.76l2.88-4.92c32-62.38,23.8-80,16.82-91.12s-54.78-8.41-54.78-8.41c4.92-13.55,2.86-17,2.86-17-.41-10.26-25.24-17.23-25.24-17.23,1.65-3.29,2.88-11.5.41-24s-18.46-26.92-33.24-45.8S440.19,318,440.19,318c60.33,40.63,82.9,32.42,82.9,32.42,9.85-2.87,14.78-10.67,17.23-28.32s-23.66-66.62-23.66-66.62C540,59.37,439.56,26.43,438.15,26c32,36.39,39.38,88.36,39.38,88.36-52-80.16-105.06-57.46-105.06-57.46C478.35,100.66,453,194.1,453,194.1s-10.67-7.7-28.93-11.6-21.65-8.41-21.65-8.41c-28.73-31.5-35.19-24-35.19-24-3.69,4.82,3.25,22.88,3.25,22.88s10.39,19.56,13.32,29.35,2.51,22,2.51,22c-2.46-2.78-9.54-3.71-16.73-2.78s-25.85,34.85-25.85,34.85S329.52,329.67,312,370.17s-37.77,46.36-41.56,47.45-17.2,10.2-17.2,10.2c-42.89,35.92-84.33,153.57-89,190s-17.5,41-17.5,41c-43.24,56.38-40.5,63.49-43.78,89.48s-2.74,26-14.51,34.74c-11.61,8.65-39.51-8.84-40.21-9.29.2.5,13.75,32.68,93.16,83.58,0,0,1.22,46.38-60.33,101l3.56-.54s-4.66,56.5,28.72,123.8H94s24.21,10.74,29.54,48.09l23.35-19.92c8.74,30.41,16.8,53.37,16.8,53.37l4.39-13.69,9.3,21.35L223.9,1174l-14.23-45.41L190,1123.68c-9.31-16.42-16.43-88.66-16.43-88.66,18.06-11.48,106.17-140.76,106.17-140.76-9.44-43.1,26-120.26,26-120.26,28.45-13.13,61.84-64.83,85.63-97.67s37.5-97.4,37.5-97.4l25.3,11.21c9.58,3.56,19.43,51.17,19.43,51.17,18.19-3.56,39.26-36.26,39.26-36.26,3.56.69,13.34.69,13.34.69-14.79,34.23-82.91,56.84-82.91,56.84L458,671.82l-38,12.93,15.8,48.42C469.13,727.42,552,617.23,552,617.23S564.13,600,563.11,591.15Zm-431.55,457q3.33,16.07,7.61,33.17C136.38,1070.35,133.77,1059.11,131.56,1048.11Zm8.74,37.56c1.88,7.26,3.83,14.35,5.76,21.1Q143.09,1096.5,140.3,1085.67ZM126,1011.5a354.46,354.46,0,0,0,5.6,36.6c-.33-.53-.85-1.36-1.47-2.4a76.89,76.89,0,0,1-6.87-18.33c-4.37-18.61-4.37-51.44-4.37-51.44C143.46,960.6,173.55,919,173.55,919,168.09,956.77,126,1011.5,126,1011.5ZM504.21,553.2s-42.68-15.59-49.66-13.54l9-12.31s55-12.31,58.69-14.36C522.27,513,519.81,539.66,504.21,553.2Z" fill="#61892f"/></svg>